<svg width="48" height="48" viewBox="0 0 48 48" fill="none" xmlns="http://www.w3.org/2000/svg">
<g id="Icon" clip-path="url(#clip0_40_695)">
<path id="Vector" d="M6 42.0006H14L40 16.0006C41.0609 14.9397 41.6569 13.5009 41.6569 12.0006C41.6569 10.5003 41.0609 9.06147 40 8.0006C38.9391 6.93974 37.5003 6.34375 36 6.34375C34.4997 6.34375 33.0609 6.93974 32 8.0006L6 34.0006V42.0006Z" stroke="#04ADE6" stroke-width="3" stroke-linecap="round" stroke-linejoin="round"/>
<path id="Vector_2" d="M29 11L37 19" stroke="#04ADE6" stroke-width="3" stroke-linecap="round" stroke-linejoin="round"/>
<path id="Vector_3" d="M24 16L14 6L6 14L16 24" stroke="#04ADE6" stroke-width="3" stroke-linecap="round" stroke-linejoin="round"/>
<path id="Vector_4" d="M14 16L11 19" stroke="#04ADE6" stroke-width="3" stroke-linecap="round" stroke-linejoin="round"/>
<path id="Vector_5" d="M32 24L42 34L34 42L24 32" stroke="#04ADE6" stroke-width="3" stroke-linecap="round" stroke-linejoin="round"/>
<path id="Vector_6" d="M32 34L29 37" stroke="#04ADE6" stroke-width="3" stroke-linecap="round" stroke-linejoin="round"/>
</g>
<defs>
<clipPath id="clip0_40_695">
<rect width="48" height="48" fill="white"/>
</clipPath>
</defs>
</svg>
