<svg width="25" height="25" viewBox="0 0 25 25" fill="none" xmlns="http://www.w3.org/2000/svg">
<g id="Icon" clip-path="url(#clip0_242_236)">
<path id="Vector (Stroke)" fill-rule="evenodd" clip-rule="evenodd" d="M12.7003 4.70312C13.2523 4.70312 13.6997 5.15057 13.6997 5.70252V19.694C13.6997 20.246 13.2523 20.6934 12.7003 20.6934C12.1484 20.6934 11.7009 20.246 11.7009 19.694V5.70252C11.7009 5.15057 12.1484 4.70312 12.7003 4.70312Z" fill="#04ADE6"/>
<path id="Vector (Stroke)_2" fill-rule="evenodd" clip-rule="evenodd" d="M4.70483 12.6976C4.70483 12.1457 5.15228 11.6982 5.70423 11.6982H19.6957C20.2477 11.6982 20.6951 12.1457 20.6951 12.6976C20.6951 13.2496 20.2477 13.697 19.6957 13.697H5.70423C5.15228 13.697 4.70483 13.2496 4.70483 12.6976Z" fill="#04ADE6"/>
</g>
<defs>
<clipPath id="clip0_242_236">
<rect width="23.9854" height="23.9854" fill="white" transform="translate(0.707764 0.705078)"/>
</clipPath>
</defs>
</svg>
